<svg role="img" aria-label="title" width="95" height="33" viewBox="0 0 95 33" fill="none" xmlns="http://www.w3.org/2000/svg" data-reactid="11">
    <title data-reactid="12">TribalScale</title>
    <path fill-rule="evenodd" clip-rule="evenodd" d="M1.74341 5.18201H4.2433C5.16772 5.18201 5.90997 4.39407 5.90997 3.40914C5.90997 2.40919 5.16772 1.63647 4.2433 1.63647H1.74341V5.18201ZM3.80304 6.7424H1.74241V10.6062H0V0H4.2423C6.13641 0 7.65138 1.51517 7.65138 3.40907C7.65138 4.77274 6.78769 5.98491 5.54526 6.48489L7.95437 10.6062H6.04523L3.80304 6.7424Z" transform="translate(16.4052 3.0011)" fill="#424242" data-reactid="13"></path>
    <path fill-rule="evenodd" clip-rule="evenodd" d="M5.98591 7.48478C5.98591 6.65135 5.36449 5.99988 4.54649 5.99988H1.74341V8.96969H4.54649C5.36449 8.96969 5.98591 8.31801 5.98591 7.48478ZM1.74341 1.63623V4.42409H4.21304C4.98596 4.42409 5.57671 3.8181 5.57671 3.03016C5.57671 2.24242 4.98596 1.63623 4.21304 1.63623H1.74341ZM7.72712 7.57563C7.72712 9.33327 6.30293 10.606 4.54549 10.606H0V0H4.21204C5.92439 0 7.31832 1.24243 7.31832 2.93935C7.31832 3.86356 6.90912 4.62124 6.24241 5.10599C7.13636 5.57571 7.72712 6.4392 7.72712 7.57563Z" transform="translate(48.4611 3.00122)" fill="#424242" data-reactid="14"></path>
    <path fill-rule="evenodd" clip-rule="evenodd" d="M6.57481 6.83318L4.89312 2.04541L3.21143 6.83318H6.57481ZM7.1516 8.46958H2.63636L1.89391 10.606H0L3.84854 0H5.93943L9.77274 10.606H7.89386L7.1516 8.46958Z" transform="translate(63.6359 3.00122)" fill="#424242" data-reactid="15"></path>
    <path fill-rule="evenodd" clip-rule="evenodd" d="M6.77646 5.1098V6.77646H0V0H1.66666V5.1098H6.77646Z" transform="translate(81.0829 6.83069)" fill="#424242" data-reactid="16"></path>
    <mask id="mask0" maskUnits="userSpaceOnUse" x="87" y="0" width="8" height="7" data-reactid="17">
        <path fill-rule="evenodd" clip-rule="evenodd" d="M0 0H6.77642V6.7763H0V0Z" transform="translate(87.8602 0.0544434)" fill="white" data-reactid="18"></path>
    </mask>
    <g mask="url(#mask0)" data-reactid="19">
        <path fill-rule="evenodd" clip-rule="evenodd" d="M0 1.66666V0H6.77646V6.77646H5.1098V1.66666H0Z" transform="translate(87.8602 0.0543213)" fill="#424242" data-reactid="20"></path>
    </g>
    <path fill-rule="evenodd" clip-rule="evenodd" d="M5.96488 1.66706V0H0V1.66706H2.11113V8.93929H0V10.6064H2.11113H3.85354H5.96488V8.93929H3.85354V1.66706H5.96488Z" transform="translate(32.8403 3.00085)" fill="#424242" data-reactid="21"></path>
    <path fill-rule="evenodd" clip-rule="evenodd" d="M0 8.39384L1.49994 7.51512C1.87888 8.59082 2.69688 9.30302 4.1363 9.30302C5.515 9.30302 6.10596 8.6818 6.10596 7.90909C6.10596 6.96965 5.27272 6.65142 3.69684 6.16647C2.0454 5.6665 0.43946 5.06051 0.43946 3.06059C0.43946 1.10597 2.06063 0 3.84854 0C5.59075 0 6.87867 0.92421 7.54537 2.33337L6.0757 3.18163C5.69695 2.33337 5.03025 1.69692 3.84854 1.69692C2.83335 1.69692 2.18167 2.21193 2.18167 3.0151C2.18167 3.83331 2.77263 4.18159 4.31826 4.66654C6.0757 5.22724 7.84837 5.7727 7.84837 7.87863C7.84837 9.81802 6.30294 10.9997 4.09081 10.9997C1.99992 10.9997 0.560497 9.96952 0 8.39384Z" transform="translate(16.4583 21.4871)" fill="#424242" data-reactid="22"></path>
    <mask id="mask1" maskUnits="userSpaceOnUse" x="30" y="21" width="11" height="12" data-reactid="23">
        <path fill-rule="evenodd" clip-rule="evenodd" d="M0 0H10.106V10.9999H0V0Z" transform="translate(30.7711 21.4871)" fill="white" data-reactid="24"></path>
    </mask>
    <g mask="url(#mask1)" data-reactid="25">
        <path fill-rule="evenodd" clip-rule="evenodd" d="M0 5.49996C0 2.42434 2.31814 0 5.54526 0C7.48466 0 9.21204 0.984927 10.106 2.53035L8.59082 3.40907C8.03012 2.36363 6.87867 1.69692 5.54526 1.69692C3.25758 1.69692 1.74221 3.31829 1.74221 5.49996C1.74221 7.68183 3.25758 9.30301 5.54526 9.30301C6.87867 9.30301 8.04535 8.6363 8.59082 7.59085L10.106 8.45455C9.22727 9.99997 7.49989 10.9999 5.54526 10.9999C2.31814 10.9999 0 8.57558 0 5.49996Z" transform="translate(30.7711 21.4871)" fill="#424242" data-reactid="26"></path>
    </g>
    <path fill-rule="evenodd" clip-rule="evenodd" d="M6.57503 6.83342L4.89313 2.04565L3.21143 6.83342H6.57503ZM7.1516 8.46978H2.63656L1.89411 10.6062H0L3.84853 0H5.93963L9.77293 10.6062H7.89405L7.1516 8.46978Z" transform="translate(47.4379 21.6838)" fill="#424242" data-reactid="27"></path>
    <path fill-rule="evenodd" clip-rule="evenodd" d="M6.78186 8.9395V10.6062H0V0H1.74261V8.9395H6.78186Z" transform="translate(65.1312 21.684)" fill="#424242" data-reactid="28"></path>
    <path fill-rule="evenodd" clip-rule="evenodd" d="M6.4396 8.9395V10.6062H0V0H6.36385V1.66686H1.74261V4.42426H5.98511V6.07589H1.74261V8.9395H6.4396Z" transform="translate(81.0828 21.684)" fill="#424242" data-reactid="29"></path>
    <path fill-rule="evenodd" clip-rule="evenodd" d="M0 0V1.66666H3.00007V10.606H4.74228V1.66666H7.72733V0H0Z" transform="translate(0.0836182 3.00122)" fill="#424242" data-reactid="30"></path>
</svg>